<?xml version="1.0" standalone="no"?>
<!DOCTYPE svg PUBLIC "-//W3C//DTD SVG 20010904//EN"
 "http://www.w3.org/TR/2001/REC-SVG-20010904/DTD/svg10.dtd">
<svg version="1.0" xmlns="http://www.w3.org/2000/svg"
 width="250.000000pt" height="70.000000pt" viewBox="0 0 250.000000 70.000000"
 preserveAspectRatio="xMidYMid meet">

<g transform="translate(0.000000,70.000000) scale(0.100000,-0.100000)"
fill="#000000" stroke="none">
<path d="M17 553 c-4 -3 -7 -51 -7 -105 l0 -98 65 0 c50 0 65 3 65 14 0 10
-14 16 -42 18 l-43 3 -3 88 c-2 63 -6 87 -16 87 -7 0 -16 -3 -19 -7z"/>
<path d="M282 548 c-9 -12 -92 -186 -92 -194 0 -2 9 -4 19 -4 11 0 23 9 26 20
5 17 15 20 60 20 45 0 55 -3 60 -20 5 -17 45 -30 45 -15 0 8 -100 205 -104
205 -2 0 -8 -6 -14 -12z m33 -88 c20 -39 20 -40 -20 -40 -19 0 -35 2 -35 5 0
9 30 65 35 65 2 0 11 -13 20 -30z"/>
<path d="M450 455 c0 -98 1 -105 20 -105 17 0 20 7 20 50 l0 50 55 0 c42 0 55
3 55 15 0 12 -13 15 -55 15 -48 0 -55 2 -55 20 0 18 7 20 55 20 48 0 55 2 55
20 0 18 -7 20 -75 20 l-75 0 0 -105z"/>
<path d="M673 458 c-40 -83 -47 -104 -34 -107 8 -2 22 6 29 18 20 30 106 31
122 1 11 -20 40 -28 40 -10 0 14 -93 200 -101 200 -3 0 -29 -46 -56 -102z m75
7 c18 -38 15 -45 -18 -45 -16 0 -30 4 -30 10 0 15 23 60 30 60 4 0 12 -11 18
-25z"/>
<path d="M836 548 c4 -7 22 -34 41 -59 26 -37 33 -56 33 -93 0 -39 3 -46 20
-46 17 0 20 7 20 46 0 37 7 56 33 93 50 70 51 71 28 71 -13 0 -31 -15 -47 -40
-15 -22 -30 -40 -34 -40 -4 0 -20 18 -35 40 -16 23 -36 40 -47 40 -12 0 -17
-4 -12 -12z"/>
<path d="M1080 455 l0 -105 75 0 c59 0 75 3 75 15 0 10 -15 15 -57 17 -57 3
-58 3 -61 36 l-3 32 55 0 c42 0 56 4 56 14 0 11 -15 16 -52 18 -40 2 -54 7
-56 20 -3 14 6 17 55 20 44 2 58 7 58 18 0 12 -16 16 -72 18 l-73 3 0 -106z"/>
<path d="M1280 540 c0 -16 7 -20 35 -20 l35 0 0 -85 c0 -68 3 -85 15 -85 11 0
15 18 17 83 l3 82 33 3 c24 2 32 8 32 23 0 17 -8 19 -85 19 -78 0 -85 -2 -85
-20z"/>
<path d="M1490 540 c0 -16 6 -20 35 -20 l35 0 0 -85 c0 -78 2 -85 20 -85 18 0
20 7 20 84 l0 85 33 3 c20 2 32 8 32 18 0 12 -18 16 -87 18 -83 3 -88 2 -88
-18z"/>
<path d="M1720 455 l0 -105 75 0 c59 0 75 3 75 15 0 10 -15 15 -57 17 -57 3
-58 3 -61 36 l-3 32 55 0 c42 0 56 4 56 14 0 11 -15 16 -52 18 -40 2 -54 7
-56 20 -3 14 6 17 55 20 44 2 58 7 58 18 0 12 -16 16 -72 18 l-73 3 0 -106z"/>
<path d="M2020 455 c0 -96 2 -106 18 -103 15 3 17 16 17 103 0 87 -2 100 -17
103 -16 3 -18 -7 -18 -103z"/>
<path d="M2178 491 c-38 -39 -68 -78 -68 -86 0 -11 13 -15 51 -15 42 0 52 -3
56 -20 3 -11 12 -20 19 -20 8 0 14 9 14 20 0 11 7 20 15 20 8 0 15 7 15 15 0
8 -7 15 -15 15 -11 0 -15 17 -17 71 l-3 72 -67 -72z m42 -41 c0 -27 -3 -30
-31 -30 l-30 0 21 30 c12 17 26 30 31 30 5 0 9 -13 9 -30z"/>
<path d="M2362 544 c-23 -16 -31 -67 -12 -79 7 -4 5 -14 -5 -28 -20 -29 -19
-43 5 -67 39 -39 140 -16 140 33 0 7 -7 22 -15 34 -10 14 -12 24 -5 28 5 3 10
19 10 35 0 33 -31 60 -70 60 -14 0 -36 -7 -48 -16z m78 -29 c15 -18 -2 -45
-30 -45 -10 0 -23 7 -30 15 -15 18 2 45 30 45 10 0 23 -7 30 -15z m8 -99 c5
-22 -13 -36 -46 -36 -25 0 -38 21 -28 46 9 23 70 15 74 -10z"/>
<path d="M1372 234 c-39 -27 -19 -94 27 -94 24 0 51 31 51 58 0 18 -33 52 -50
52 -3 0 -16 -7 -28 -16z m53 -39 c0 -25 -4 -30 -25 -30 -16 0 -26 6 -28 18 -6
30 6 49 30 45 18 -2 23 -9 23 -33z"/>
<path d="M820 196 c0 -25 5 -48 10 -51 6 -4 10 7 10 27 l0 33 26 -32 c14 -18
30 -33 35 -33 5 0 9 23 9 50 0 28 -4 50 -10 50 -5 0 -10 -15 -10 -32 l-1 -33
-28 33 c-15 17 -31 32 -34 32 -4 0 -7 -20 -7 -44z"/>
<path d="M950 190 l0 -50 34 0 c19 0 38 5 41 10 4 6 -7 10 -24 10 -21 0 -31 5
-31 15 0 9 9 15 25 15 14 0 25 5 25 10 0 6 -11 10 -25 10 -34 0 -32 18 3 23
22 3 20 4 -10 6 l-38 1 0 -50z"/>
<path d="M1068 191 c18 -58 30 -64 39 -21 6 35 23 50 23 23 0 -11 6 -27 14
-38 12 -17 14 -14 29 30 10 27 14 51 11 54 -7 8 -24 -20 -25 -44 0 -15 -4 -12
-15 13 -17 38 -31 41 -40 7 -8 -31 -22 -33 -26 -3 -2 12 -8 23 -15 25 -8 3 -7
-11 5 -46z"/>
<path d="M1250 231 c0 -5 7 -14 15 -21 8 -7 15 -25 15 -41 0 -16 5 -29 10 -29
6 0 10 12 10 27 0 14 7 35 17 45 9 10 13 21 10 25 -4 4 -14 -2 -22 -13 -14
-18 -16 -18 -29 -1 -14 18 -26 22 -26 8z"/>
<path d="M1480 189 c0 -31 4 -48 10 -44 6 3 10 16 10 28 0 20 2 20 25 -8 23
-29 35 -26 16 4 -7 10 -4 19 6 26 27 20 8 45 -32 45 l-35 0 0 -51z m58 29 c-7
-19 -38 -22 -38 -4 0 10 9 16 21 16 12 0 19 -5 17 -12z"/>
<path d="M1590 189 c0 -31 4 -48 10 -44 6 3 10 13 10 21 0 20 14 18 35 -6 10
-11 21 -18 23 -15 3 3 -5 16 -18 30 -23 24 -23 25 -5 45 22 24 9 27 -17 3 -17
-15 -18 -15 -18 0 0 10 -4 17 -10 17 -5 0 -10 -23 -10 -51z"/>
</g>
</svg>
