<?xml version="1.0" standalone="no"?>
<!DOCTYPE svg PUBLIC "-//W3C//DTD SVG 20010904//EN"
 "http://www.w3.org/TR/2001/REC-SVG-20010904/DTD/svg10.dtd">
<svg version="1.0" xmlns="http://www.w3.org/2000/svg"
 width="3300.000000pt" height="537.000000pt" viewBox="0 0 3300.000000 537.000000"
 preserveAspectRatio="xMidYMid meet">

<g transform="translate(0.000000,537.000000) scale(0.100000,-0.100000)"
fill="#000000" stroke="none">
<path d="M7242 2778 c-144 -420 -269 -784 -278 -810 l-16 -48 -69 0 -69 0 0
-30 0 -30 220 0 220 0 0 30 0 30 -114 0 -113 0 68 203 c38 111 85 248 105 304
l36 102 247 0 248 0 93 -292 c52 -161 96 -298 98 -304 3 -10 -17 -13 -82 -13
l-86 0 0 -30 0 -30 270 0 270 0 0 29 c0 29 -2 30 -51 33 l-51 3 -262 805 -262
805 -80 3 -81 3 -261 -763z m464 -180 c5 -17 -10 -18 -226 -18 l-231 0 7 23
c4 12 57 168 117 347 l111 325 108 -330 c59 -181 111 -338 114 -347z"/>
<path d="M18781 3518 c-4 -13 -129 -377 -277 -810 l-269 -788 -67 0 -68 0 0
-30 0 -30 220 0 220 0 0 30 0 30 -115 0 c-63 0 -115 1 -115 3 1 1 47 137 103
302 l102 300 250 0 249 0 98 -300 97 -300 -85 -3 -84 -3 0 -29 0 -30 265 0
265 0 0 30 c0 29 -1 30 -47 30 l-48 1 -138 427 c-76 235 -195 599 -263 810
l-125 382 -80 0 c-73 0 -80 -2 -88 -22z m103 -588 c59 -182 104 -335 101 -340
-8 -13 -432 -14 -439 -1 -6 10 215 671 225 671 3 0 54 -149 113 -330z"/>
<path d="M4940 3490 l0 -30 70 0 70 0 0 -770 0 -770 -70 0 -70 0 0 -30 0 -30
295 0 295 0 0 30 0 30 -90 0 -90 0 0 387 c0 280 3 384 11 376 6 -6 143 -192
304 -414 l292 -404 197 -3 196 -2 0 30 0 30 -62 0 -63 1 -278 386 c-206 286
-275 388 -265 394 7 5 27 9 44 9 50 0 177 36 240 68 90 46 139 94 179 176 33
67 36 79 36 163 0 163 -64 269 -204 338 -121 59 -177 65 -633 65 l-404 0 0
-30z m787 -59 c115 -51 176 -162 176 -316 -1 -110 -27 -188 -85 -251 -74 -81
-176 -114 -350 -114 l-118 0 0 356 0 356 163 -4 c144 -3 168 -6 214 -27z"/>
<path d="M8910 3490 l0 -30 70 0 70 0 0 -770 0 -770 -70 0 -70 0 0 -30 0 -30
580 0 580 0 0 335 0 335 -30 0 c-32 0 -27 12 -70 -160 -53 -209 -114 -362
-161 -407 -42 -38 -73 -43 -285 -43 l-204 0 0 770 0 769 118 3 117 3 3 28 3
27 -325 0 -326 0 0 -30z"/>
<path d="M10820 3490 l0 -30 75 0 75 0 0 -770 0 -770 -75 0 -75 0 0 -30 0 -30
315 0 315 0 0 30 0 30 -110 0 -110 0 0 374 0 374 210 1 c244 1 326 14 439 68
145 69 212 170 219 329 3 70 0 105 -13 145 -36 108 -114 191 -229 245 -126 57
-190 64 -637 64 l-399 0 0 -30z m815 -54 c141 -64 210 -223 184 -430 -29 -228
-125 -285 -481 -286 l-108 0 0 371 0 371 183 -4 c147 -4 190 -8 222 -22z"/>
<path d="M12740 3490 l0 -30 75 0 75 0 0 -770 0 -770 -75 0 -75 0 0 -30 0 -30
285 0 285 0 0 30 0 30 -80 0 -80 0 0 385 0 385 315 0 315 0 0 -385 0 -385 -80
0 -80 0 0 -30 0 -30 285 0 285 0 0 30 0 30 -75 0 -75 0 0 770 0 769 73 3 c70
3 72 4 75 31 l3 27 -285 0 -286 0 0 -30 0 -30 80 0 80 0 0 -355 0 -355 -315 0
-315 0 0 355 0 354 78 3 c76 3 77 3 80 31 l3 27 -285 0 -286 0 0 -30z"/>
<path d="M16360 3490 l0 -30 70 0 70 0 0 -770 0 -770 -70 0 -70 0 0 -30 0 -30
581 2 580 3 0 330 -1 330 -27 3 -28 3 -43 -163 c-50 -190 -98 -322 -136 -377
-45 -64 -75 -71 -311 -71 l-205 0 0 770 0 770 120 0 120 0 0 30 0 30 -325 0
-325 0 0 -30z"/>
<path d="M20170 3490 l0 -30 70 0 70 0 0 -617 c0 -516 3 -629 15 -682 52 -221
233 -333 536 -332 122 0 182 12 259 53 101 53 166 130 202 236 22 66 23 74 26
705 l3 637 70 0 69 0 0 30 0 30 -215 0 -215 0 0 -30 0 -30 105 0 105 0 0 -629
c0 -602 -1 -632 -20 -692 -50 -160 -185 -253 -365 -252 -138 1 -242 78 -287
211 -22 66 -22 76 -26 714 l-3 647 88 3 c88 3 88 3 91 31 l3 27 -290 0 -291 0
0 -30z"/>
<path d="M22160 3491 l0 -31 70 0 70 0 0 -770 0 -770 -70 0 -70 0 0 -30 0 -30
295 0 295 0 0 30 0 30 -95 0 -95 0 0 385 c0 225 4 385 9 385 5 0 70 -84 144
-187 75 -104 209 -289 299 -413 l163 -225 193 -3 192 -2 0 30 c0 30 0 30 -58
30 l-58 0 -120 168 c-66 92 -193 267 -282 389 l-161 222 47 6 c331 44 497 209
471 467 -16 154 -121 268 -298 322 -61 18 -99 20 -503 24 l-438 3 0 -30z m744
-45 c141 -43 218 -159 218 -330 0 -155 -55 -257 -171 -315 -77 -39 -142 -51
-276 -51 l-115 0 0 355 0 355 148 0 c100 0 164 -5 196 -14z"/>
<path d="M24118 3495 c-3 -13 -3 -27 0 -30 3 -3 36 -5 74 -5 l68 0 0 -770 0
-770 -70 0 -70 0 0 -30 0 -30 621 2 620 3 0 305 0 305 -29 3 c-28 3 -29 1 -47
-65 -29 -108 -93 -290 -125 -352 -33 -65 -81 -114 -129 -130 -22 -7 -121 -11
-272 -11 l-239 0 0 386 0 386 129 -4 c111 -3 134 -6 158 -23 38 -28 78 -111
105 -217 22 -84 24 -88 50 -88 l28 0 0 360 0 360 -29 0 c-28 0 -30 -3 -41 -56
-17 -80 -47 -163 -73 -201 -38 -57 -87 -73 -215 -73 l-112 0 0 355 0 355 268
0 c250 0 269 -1 300 -20 43 -27 93 -130 147 -310 41 -134 42 -135 73 -138 l32
-3 0 265 0 266 -609 0 -609 0 -4 -25z"/>
<path d="M26080 3490 l0 -30 80 0 80 0 0 -770 0 -770 -80 0 -80 0 0 -30 0 -30
215 0 215 0 0 30 0 30 -100 0 -100 0 0 748 0 747 173 -290 c95 -159 303 -509
462 -777 l290 -488 43 0 42 0 0 800 0 800 80 0 80 0 0 30 0 30 -210 0 -210 0
0 -30 0 -30 95 0 95 0 0 -567 0 -568 -91 155 c-50 85 -133 225 -183 310 -50
85 -168 284 -261 443 l-169 287 -233 0 -233 0 0 -30z"/>
</g>
</svg>
