<?xml version="1.0" encoding="utf-8"?>
<!-- Generator: Adobe Illustrator 25.2.0, SVG Export Plug-In . SVG Version: 6.00 Build 0)  -->
<svg version="1.1" id="Calque_1" xmlns="http://www.w3.org/2000/svg" xmlns:xlink="http://www.w3.org/1999/xlink" x="0px" y="0px"
	 viewBox="0 0 371.46 59.98" style="enable-background:new 0 0 371.46 59.98;" xml:space="preserve">
<style type="text/css">
	.st0{clip-path:url(#SVGID_2_);}
</style>
<g>
	<defs>
		<rect id="SVGID_1_" x="1.05" y="1" width="369.46" height="58.18"/>
	</defs>
	<clipPath id="SVGID_2_">
		<use xlink:href="#SVGID_1_"  style="overflow:visible;"/>
	</clipPath>
	<path class="st0" d="M343.27,44.56c-7.12,0-10.2-5.77-10.2-14.23c0-8.46,3-14.71,10.2-14.71c7.28,0,10.13,6.25,10.13,14.71
		C353.4,38.79,350.47,44.56,343.27,44.56 M343.27,59.18c16.35,0,27.23-11.62,27.23-29.01C370.5,12.94,359.62,1,343.27,1
		c-16.28,0-27.23,11.94-27.23,29.17C316.04,47.56,326.99,59.18,343.27,59.18 M275.23,26.85V15.94h3.53c5.55,0,8.03,1.66,8.03,5.45
		c0,3.56-2.7,5.45-7.8,5.45H275.23z M257.6,57.68h17.63V38.71h3.45c5.1,0,6.45,1.66,7.43,9.88c0.67,5.14,0.9,6.72,1.73,9.09h17.93
		c-1.12-3.56-1.42-5.45-1.8-8.14l-0.75-5.38c-1.05-7.67-3.9-10.51-9.83-12.09c6.3-1.74,10.58-6.96,10.58-13.91
		c0-5.06-1.88-9.17-5.4-12.09c-3.3-2.77-7.28-3.8-14.55-3.8H257.6V57.68z M210.42,16.25h1.2c8.7,0,13.35,3.72,13.35,13.76
		c0,9.88-4.27,13.75-13.43,13.75h-1.12V16.25z M192.86,57.76h18.68c19.88,0,31.28-8.06,31.28-27.82c0-20.87-11.4-27.51-31.28-27.51
		h-18.68V57.76z M143.58,2.42h-15.9v55.34h16.13V44.4c0-8.85-0.37-15.1-0.37-15.1h0.07c0,0,9.15,15.41,16.58,28.46h15.9V2.42h-16.13
		v12.81c0,8.3,0.23,14.31,0.23,14.31h-0.08L143.58,2.42z M80.34,35.15c1.95-6.8,3.45-11.94,4.8-17.08h0.08
		c1.35,5.14,2.93,10.27,4.88,17.08H80.34z M114.4,57.76L95.49,2.42h-19.8l-19.2,55.34h17.33l2.63-9.17h17.55l2.63,9.17H114.4z
		 M47.63,19.66C46.66,7.32,38.71,1,24.3,1C9.75,1,1.95,8.11,1.95,18.31c0,9.01,4.35,14.54,17.1,17.94l6.23,1.66
		c3.82,1.03,6,1.98,6,4.43c0,2.53-2.18,4.03-5.7,4.03c-3.6,0-5.93-2.05-6.38-6.56H1.05C1.87,52.07,9.6,59.18,24.68,59.18
		c14.85,0,23.71-7.19,23.71-18.18c0-9.25-4.88-13.83-17.56-17.63L27.9,22.5c-5.93-1.74-8.63-2.21-8.63-5.14
		c0-2.06,1.65-3.72,4.8-3.72c3.9,0,5.78,1.9,6.45,6.01H47.63z"/>
</g>
</svg>
