<?xml version="1.0" encoding="utf-8"?>
<!-- Generator: Adobe Illustrator 19.2.1, SVG Export Plug-In . SVG Version: 6.00 Build 0)  -->
<svg version="1.1" id="layer" xmlns="http://www.w3.org/2000/svg" xmlns:xlink="http://www.w3.org/1999/xlink" x="0px" y="0px"
	 viewBox="0 0 652 652" style="enable-background:new 0 0 652 652;" xml:space="preserve">
<polygon points="225.4,327 216.2,314.2 216.2,325.1 214.8,325.1 214.8,309.5 226.7,325.9 "/>
<path d="M39,338.3h-4.7l-12.8-34.9h6.2l8.3,23.9c0.2,0.9,0.4,1.5,0.9,2.3c0.2-1.1,0.6-1.9,0.9-2.8l8.3-23.4h6L39,338.3z M35.3,336.8
	h2.6l11.9-32h-2.8l-7.9,22.4c-0.6,1.5-1.3,3.4-1.5,5.5h-1.5c-0.4-1.7-0.9-3.4-1.5-5.1l-0.2-0.4L26.4,305h-3L35.3,336.8z M90.1,338.3
	h-19v-34.9h19v5.3h-13v8.9h13v5.3h-13v9.8h13V338.3z M72.6,336.8h16v-2.3h-13v-12.8h13v-2.3h-13v-11.9h13V305h-16V336.8z
	 M137.8,338.3h-7.5l-10.9-10.9v10.9h-5.8v-34.9h8.3c8.3,0,13.4,4,13.4,10.9c0,6.2-4.3,10.7-10.2,11.1L137.8,338.3z M130.8,336.8h3.4
	l-12.6-13h1.7c0,0,0.2,0,0.4,0c0.2,0,0.4,0,0.6,0c5.3,0,9.4-4,9.4-9.6c0-6-4.3-9.4-11.9-9.4H115v32h3v-13L130.8,336.8z M121.9,322.1
	H118v-14.7h3.6c8.1,0,9.4,4.5,9.4,7C130.8,319.3,127.6,322.1,121.9,322.1z M119.3,320.6h2.3c3.4,0,7.7-1.1,7.7-6.2
	c0-3.6-2.6-5.5-7.9-5.5h-2.1C119.3,308.9,119.3,320.6,119.3,320.6z M573.3,338.3h-7.5L555,327.4v10.9h-5.8v-34.9h8.3
	c8.3,0,13.4,4,13.4,10.9c0,6.2-4.3,10.7-10.2,11.1L573.3,338.3z M566.3,336.8h3.4l-12.6-13h1.7c0,0,0.2,0,0.4,0s0.4,0,0.6,0
	c5.3,0,9.4-4,9.4-9.6c0-6-4.3-9.4-11.9-9.4h-6.8v32h2.8v-13L566.3,336.8z M557.4,322.1h-3.8v-14.7h3.6c8.1,0,9.4,4.5,9.4,7
	C566.3,319.3,563.1,322.1,557.4,322.1z M555,320.6h2.3c3.4,0,7.7-1.1,7.7-6.2c0-3.6-2.6-5.5-7.9-5.5H555V320.6L555,320.6z
	 M172.4,338.9c-5.1,0-9.4-1.7-12.6-4.9c-3.6-3.4-5.3-8.1-5.3-13.2c0-5.3,1.9-9.8,5.3-13.2c3.2-3.2,7.5-4.9,12.6-4.9
	c5.1,0,9.4,1.7,12.6,4.9c3.6,3.4,5.3,8.1,5.3,13.2c0,5.3-1.9,9.8-5.3,13.2C181.7,337.4,177.5,338.9,172.4,338.9z M172.4,304.2
	c-4.7,0-8.5,1.5-11.5,4.5c-3.2,3.2-4.9,7.5-4.9,12.1c0,4.9,1.7,8.9,4.9,12.1c3,3,6.8,4.5,11.5,4.5c4.7,0,8.5-1.5,11.5-4.5
	c3.2-3.2,4.9-7.5,4.9-12.1c0-4.9-1.7-9.2-4.9-12.1C180.9,305.7,177,304.2,172.4,304.2z M172.4,335.1c-3.8,0-7-1.3-9.4-3.8
	c-2.6-2.6-4-6.2-4-10.4c0-4,1.5-7.7,4-10.4c2.3-2.6,5.8-3.8,9.4-3.8c3.8,0,7,1.3,9.6,3.8c2.8,2.8,4,6.4,4,10.4c0,4-1.5,7.7-4,10.4
	C179.4,333.8,176.2,335.1,172.4,335.1z M172.4,308.2c-3.4,0-6.2,1.1-8.3,3.4c-2.3,2.3-3.6,5.5-3.6,9.4c0,3.8,1.3,7,3.6,9.4
	c2.1,2.3,4.9,3.4,8.3,3.4s6.4-1.1,8.5-3.4c2.3-2.3,3.6-5.5,3.6-9.4s-1.3-6.8-3.6-9.4C178.5,309.3,175.8,308.2,172.4,308.2z
	 M267.8,338.3h-5.8v-34.9h5.8V338.3z M263.3,336.8h2.8v-32h-2.8V336.8z M305.5,338.9c-5.1,0-9.4-1.7-12.6-4.9
	c-3.6-3.4-5.3-8.1-5.3-13.2c0-5.3,1.9-9.8,5.3-13.2c3.2-3.2,7.5-4.9,12.6-4.9c4.9,0,8.9,1.5,12.1,4.5l0.6,0.4l-3.8,4.3l-0.6-0.6
	c-2.3-2.1-5.1-3.2-8.3-3.2c-3.4,0-6.2,1.1-8.5,3.4c-2.3,2.6-3.6,5.5-3.6,9.4c0,3.8,1.3,6.8,3.6,9.4c2.1,2.1,5.1,3.4,8.5,3.4
	c3.6,0,6.6-1.3,8.5-3.4l0.6-0.6l4,4.3l-0.4,0.4C314.7,337.4,310.4,338.9,305.5,338.9z M305.5,304.2c-4.7,0-8.5,1.5-11.5,4.5
	c-3.2,3.2-4.9,7.5-4.9,12.1c0,4.9,1.7,9.2,4.9,12.1c3,3,6.8,4.5,11.5,4.5c4.5,0,8.1-1.3,11.1-3.8l-1.9-1.9c-2.3,2.3-5.3,3.4-9.2,3.4
	s-7-1.3-9.6-3.8c-2.6-2.8-4-6.4-4-10.4c0-4,1.5-7.7,4-10.4c2.6-2.6,5.8-3.8,9.6-3.8c3.4,0,6.4,1.1,8.9,3.2l1.7-2.1
	C313.4,305.5,309.8,304.2,305.5,304.2z M369.4,338.3h-6.6l-3-7.7h-14.7l-3,7.7H336l14.3-34.9h4.7L369.4,338.3z M363.7,336.8h3.4
	l-13.4-32h-2.6l-13,32h3l3-7.7h16.8L363.7,336.8z M353,309.1c0.6,1.9,6.6,17.5,6.6,17.5h-14.7c0,0,6.2-16,6.8-17.5 M347.1,325.3
	h10.4l-4.9-12.4c0-0.2-0.2-0.4-0.4-0.9c-0.2,0.4-0.2,0.6-0.2,0.9L347.1,325.3z M531.8,338.3h-6.6l-3-7.7h-14.7l-3,7.7h-6.2
	l14.3-34.9h4.7L531.8,338.3z M526.3,336.8h3.4l-13.4-32h-2.6l-13,32h3l3-7.7h16.8L526.3,336.8z M515.6,309.1
	c0.6,1.9,6.6,17.5,6.6,17.5h-14.7c0,0,6.2-16,6.8-17.5 M509.6,325.3h10.4l-4.9-12.4c0-0.2-0.2-0.4-0.4-0.9c-0.2,0.4-0.2,0.6-0.2,0.9
	L509.6,325.3z M429.3,338.3h-10.7v-34.9h6.4c3.6,0,6.6,0.2,8.7,1.5c3,1.9,4.7,4.7,4.7,8.3c0,2.6-1.1,4.7-3.2,6.4
	c3.6,1.7,5.5,4.7,5.5,8.7C441,334,435.9,338.3,429.3,338.3z M420.2,336.8h9.2c5.8,0,10-3.6,10-8.5c0-3.8-1.9-6.6-5.8-7.9l-1.7-0.4
	l1.5-0.9c2.3-1.3,3.6-3.4,3.6-5.8c0-3-1.5-5.5-4-7c-1.9-1.1-4.9-1.3-7.9-1.3h-4.9V336.8z M428.2,334.4h-5.1v-12.8h5.3
	c6.8,0,8.1,3.4,8.1,6.4C436.6,330.4,435.5,334.4,428.2,334.4z M424.4,332.9h3.6c4.5,0,6.8-1.7,6.8-4.9c0-3.2-2.1-4.9-6.6-4.9h-3.8
	L424.4,332.9L424.4,332.9z M427.4,319.3h-4.3v-12.1h4c6,0,7.2,3.4,7.2,6.2C434.4,317,431.7,319.3,427.4,319.3z M424.4,317.8h2.8
	c3.6,0,5.5-1.7,5.5-4.5c0-1.9-0.6-4.7-5.8-4.7h-2.6L424.4,317.8L424.4,317.8z M480,338.3h-19v-34.9h19v5.3h-13v8.9h13v5.3h-13v9.8
	h13V338.3z M462.6,336.8h16v-2.3h-13v-12.8h13v-2.3h-13v-11.9h13V305h-16V336.8z M601.5,338.3h-7.7v-34.9h7.7c13,0,20,6,20,17.5
	C621.3,332.3,614.5,338.3,601.5,338.3z M595.3,336.8h6.2c12.1,0,18.5-5.5,18.5-16s-6.4-16-18.5-16h-6.2V336.8z M602.1,334.4h-3.8
	v-27.1h3.8c9.8,0,14.9,4.7,14.9,13.4C617,329.7,611.9,334.4,602.1,334.4z M599.6,332.9h2.6c8.9,0,13.4-4,13.4-11.9
	c0-7.9-4.5-11.9-13.4-11.9h-2.6V332.9z M238.2,338.3h-4.7l-8.9-12.6l1.3-0.9l8.5,11.9h2.3V305h-2.8v26.4l-11.3-15.8L215,305h-3v31.7
	h2.8v-21.9h1.5v23.4h-5.8v-34.9h5.3l7.9,11.5l8.7,12.1v-23.7h5.8V338.3z"/>
</svg>
