<?xml version="1.0" standalone="no"?>
<!DOCTYPE svg PUBLIC "-//W3C//DTD SVG 20010904//EN"
 "http://www.w3.org/TR/2001/REC-SVG-20010904/DTD/svg10.dtd">
<svg version="1.0" xmlns="http://www.w3.org/2000/svg"
 width="256.000000pt" height="63.000000pt" viewBox="0 0 256.000000 63.000000"
 preserveAspectRatio="xMidYMid meet">

<g transform="translate(0.000000,63.000000) scale(0.100000,-0.100000)"
fill="#000000" stroke="none">
<path d="M1170 621 c-84 -27 -146 -89 -180 -177 -28 -75 -25 -204 7 -275 62
-137 193 -195 314 -139 48 23 51 23 84 7 20 -9 38 -17 40 -17 3 0 5 54 5 119
0 136 8 166 44 175 14 3 26 13 26 21 0 13 -25 15 -160 15 -136 0 -160 -2 -160
-15 0 -10 10 -15 28 -15 46 0 101 -20 112 -40 5 -10 10 -55 10 -98 0 -77 -1
-81 -31 -106 -73 -62 -168 -22 -206 88 -13 36 -18 80 -18 151 1 119 21 188 70
240 29 31 38 35 84 35 46 0 55 -4 89 -38 22 -22 47 -61 57 -90 11 -29 23 -52
27 -52 5 0 8 37 6 82 l-3 82 -47 24 c-51 26 -153 38 -198 23z"/>
<path d="M32 518 c-17 -56 -28 -105 -25 -108 3 -3 21 15 41 40 20 25 55 64 78
88 l41 42 82 0 c44 0 81 -3 81 -6 0 -3 -70 -121 -155 -261 -110 -179 -154
-261 -150 -274 6 -18 19 -19 209 -19 l203 0 16 58 c9 31 23 78 31 105 20 65 2
62 -48 -7 -21 -30 -53 -69 -72 -87 -32 -31 -38 -33 -124 -37 -49 -3 -90 -2
-90 2 0 3 70 121 156 262 125 204 155 260 150 280 l-6 24 -193 0 -194 0 -31
-102z"/>
<path d="M517 614 c-11 -12 -8 -24 6 -24 8 0 21 -8 30 -18 15 -16 17 -49 17
-255 0 -224 -1 -238 -20 -257 -11 -11 -24 -20 -30 -20 -5 0 -10 -4 -10 -10 0
-6 70 -10 190 -10 l189 0 27 85 c29 92 25 118 -9 70 -12 -17 -40 -50 -63 -75
-42 -44 -44 -45 -106 -45 l-63 0 0 130 0 130 43 3 c40 3 47 0 83 -37 21 -23
42 -41 47 -41 5 0 -5 45 -21 100 -32 102 -57 132 -57 67 0 -43 -15 -57 -62
-57 l-38 0 0 115 0 115 55 0 c74 0 95 -12 151 -86 27 -35 52 -60 56 -56 5 5
-4 46 -19 93 l-28 84 -181 3 c-99 1 -183 -1 -187 -4z"/>
<path d="M1490 605 c0 -8 6 -15 14 -15 7 0 25 -9 40 -21 l26 -21 -2 -236 -3
-237 -37 -18 c-21 -10 -38 -23 -38 -28 0 -5 50 -9 110 -9 91 0 110 3 110 15 0
10 -10 15 -30 15 -17 0 -39 9 -50 20 -19 19 -20 33 -20 212 0 116 4 188 9 183
5 -6 66 -108 136 -227 l127 -218 44 0 44 0 0 258 c0 279 2 293 55 306 14 4 25
13 25 21 0 12 -19 15 -105 15 -82 0 -105 -3 -105 -14 0 -7 13 -16 29 -19 59
-12 61 -20 61 -229 0 -105 -3 -189 -6 -185 -3 3 -63 104 -133 224 l-127 218
-87 3 c-73 2 -87 0 -87 -13z"/>
<path d="M2150 605 c0 -8 8 -15 18 -15 11 0 27 -9 36 -19 17 -19 15 -29 -59
-253 -76 -228 -94 -268 -122 -268 -7 0 -13 -7 -13 -15 0 -12 17 -15 90 -15 73
0 90 3 90 15 0 10 -10 15 -29 15 -45 0 -55 20 -41 80 l12 50 102 0 103 0 11
-39 c22 -71 13 -91 -39 -91 -10 0 -19 -7 -19 -15 0 -13 22 -15 135 -15 104 0
135 3 135 13 0 7 -16 19 -34 25 -41 15 -36 5 -147 340 l-74 222 -77 0 c-63 0
-78 -3 -78 -15z m134 -260 c20 -61 36 -116 36 -123 0 -9 -24 -12 -86 -12 -65
0 -85 3 -81 13 2 6 22 65 43 129 21 65 41 114 45 110 4 -4 23 -57 43 -117z"/>
</g>
</svg>
